<svg width="16" height="16" viewBox="0 0 16 16" fill="none" xmlns="http://www.w3.org/2000/svg">
<path fill-rule="evenodd" clip-rule="evenodd" d="M15.7859 9.43301C15.1127 13.0749 11.9201 15.8334 8.08333 15.8334C3.7571 15.8334 0.25 12.3263 0.25 8.00008C0.25 3.67385 3.7571 0.166748 8.08333 0.166748C10.2456 0.166748 12.2033 1.04284 13.6207 2.45943C13.6207 2.45943 11.9522 4.75211 14.6748 5.94622C14.6748 5.94622 13.6207 8.09561 15.7859 9.43301Z" fill="black"/>
<path d="M7.48695 13.5834L8.89365 13.5826L8.89289 12.2757C10.8135 12.1012 12.0843 11.1002 12.0834 9.47322L12.0834 9.44654C12.0824 7.79285 10.9999 7.0333 8.84894 6.54108L8.84803 4.99408C9.45678 5.14043 10.1062 5.40678 10.661 5.79322L11.7691 4.00552C10.9572 3.4592 10.0237 3.08632 8.91447 2.96692L8.914 2.16675L7.50729 2.16755L7.50774 2.92772C5.43835 3.0756 4.27576 4.16984 4.27668 5.74352L4.2767 5.77019C4.27767 7.42389 5.38723 8.15675 7.56521 8.64895L7.56615 10.2493C6.72746 10.1164 5.91569 9.7568 5.04967 9.15716L3.83337 10.9316C4.84825 11.6512 6.16054 12.1172 7.48617 12.2498L7.48695 13.5834ZM7.57736 6.31509C6.84684 6.11547 6.65736 5.91553 6.65715 5.56879L6.65714 5.54212C6.65694 5.19537 6.91377 4.9285 7.57651 4.87478L7.57736 6.31509ZM8.83764 10.3286L8.83678 8.8616C9.54024 9.06124 9.74325 9.26117 9.74346 9.62125L9.74348 9.64792C9.74371 10.0347 9.45979 10.2616 8.83764 10.3286Z" fill="white"/>
</svg>
